<mxfile host="app.diagrams.net" modified="2023-12-31T04:26:18.625Z" agent="Mozilla/5.0 (Windows NT 10.0; Win64; x64) AppleWebKit/537.36 (KHTML, like Gecko) Chrome/120.0.0.0 Safari/537.36" etag="B0K8nrXE0YKqu-7jBVSi" version="22.1.16" type="github">
  <diagram name="第 1 页" id="3c7-YKSq7JLv_ibGxWt0">
    <mxGraphModel dx="893" dy="548" grid="1" gridSize="10" guides="1" tooltips="1" connect="1" arrows="1" fold="1" page="1" pageScale="1" pageWidth="827" pageHeight="1169" math="0" shadow="0">
      <root>
        <mxCell id="0" />
        <mxCell id="1" parent="0" />
        <mxCell id="Y2pjcOXVoZPDimEb5wzu-3" style="edgeStyle=orthogonalEdgeStyle;rounded=0;orthogonalLoop=1;jettySize=auto;html=1;entryX=0;entryY=0.5;entryDx=0;entryDy=0;" edge="1" parent="1" source="CQSmMKJmLMmd6HDstxWm-1" target="Y2pjcOXVoZPDimEb5wzu-1">
          <mxGeometry relative="1" as="geometry" />
        </mxCell>
        <mxCell id="CQSmMKJmLMmd6HDstxWm-1" value="用户" style="rounded=0;whiteSpace=wrap;html=1;" parent="1" vertex="1">
          <mxGeometry x="130" y="110" width="70" height="40" as="geometry" />
        </mxCell>
        <mxCell id="Y2pjcOXVoZPDimEb5wzu-4" style="edgeStyle=orthogonalEdgeStyle;rounded=0;orthogonalLoop=1;jettySize=auto;html=1;entryX=0.5;entryY=0;entryDx=0;entryDy=0;" edge="1" parent="1" source="Y2pjcOXVoZPDimEb5wzu-1" target="Y2pjcOXVoZPDimEb5wzu-2">
          <mxGeometry relative="1" as="geometry" />
        </mxCell>
        <mxCell id="Y2pjcOXVoZPDimEb5wzu-1" value="点击已创建的主题进入房间" style="rounded=0;whiteSpace=wrap;html=1;" vertex="1" parent="1">
          <mxGeometry x="260" y="110" width="220" height="40" as="geometry" />
        </mxCell>
        <mxCell id="Y2pjcOXVoZPDimEb5wzu-27" value="" style="edgeStyle=orthogonalEdgeStyle;rounded=0;orthogonalLoop=1;jettySize=auto;html=1;" edge="1" parent="1" source="Y2pjcOXVoZPDimEb5wzu-2" target="Y2pjcOXVoZPDimEb5wzu-26">
          <mxGeometry relative="1" as="geometry" />
        </mxCell>
        <mxCell id="Y2pjcOXVoZPDimEb5wzu-2" value="开始聊天" style="rounded=0;whiteSpace=wrap;html=1;" vertex="1" parent="1">
          <mxGeometry x="260" y="200" width="220" height="40" as="geometry" />
        </mxCell>
        <mxCell id="Y2pjcOXVoZPDimEb5wzu-13" value="" style="rounded=0;whiteSpace=wrap;html=1;" vertex="1" parent="1">
          <mxGeometry x="150" y="1700" width="1020" height="60" as="geometry" />
        </mxCell>
        <mxCell id="Y2pjcOXVoZPDimEb5wzu-14" style="edgeStyle=orthogonalEdgeStyle;rounded=0;orthogonalLoop=1;jettySize=auto;html=1;entryX=0;entryY=0.5;entryDx=0;entryDy=0;" edge="1" parent="1" source="Y2pjcOXVoZPDimEb5wzu-15" target="Y2pjcOXVoZPDimEb5wzu-17">
          <mxGeometry relative="1" as="geometry" />
        </mxCell>
        <mxCell id="Y2pjcOXVoZPDimEb5wzu-15" value="用户" style="rounded=0;whiteSpace=wrap;html=1;" vertex="1" parent="1">
          <mxGeometry x="190" y="1440" width="70" height="40" as="geometry" />
        </mxCell>
        <mxCell id="Y2pjcOXVoZPDimEb5wzu-16" style="edgeStyle=orthogonalEdgeStyle;rounded=0;orthogonalLoop=1;jettySize=auto;html=1;entryX=0.5;entryY=0;entryDx=0;entryDy=0;" edge="1" parent="1" source="Y2pjcOXVoZPDimEb5wzu-17" target="Y2pjcOXVoZPDimEb5wzu-20">
          <mxGeometry relative="1" as="geometry" />
        </mxCell>
        <mxCell id="Y2pjcOXVoZPDimEb5wzu-17" value="点击已创建的主题进入房间" style="rounded=0;whiteSpace=wrap;html=1;" vertex="1" parent="1">
          <mxGeometry x="320" y="1440" width="220" height="40" as="geometry" />
        </mxCell>
        <mxCell id="Y2pjcOXVoZPDimEb5wzu-18" value="" style="rounded=0;whiteSpace=wrap;html=1;" vertex="1" parent="1">
          <mxGeometry x="150" y="1610" width="1020" height="60" as="geometry" />
        </mxCell>
        <mxCell id="Y2pjcOXVoZPDimEb5wzu-19" value="" style="edgeStyle=orthogonalEdgeStyle;rounded=0;orthogonalLoop=1;jettySize=auto;html=1;dashed=1;dashPattern=8 8;" edge="1" parent="1" source="Y2pjcOXVoZPDimEb5wzu-20" target="Y2pjcOXVoZPDimEb5wzu-22">
          <mxGeometry relative="1" as="geometry" />
        </mxCell>
        <mxCell id="Y2pjcOXVoZPDimEb5wzu-20" value="开始聊天" style="rounded=0;whiteSpace=wrap;html=1;" vertex="1" parent="1">
          <mxGeometry x="320" y="1530" width="220" height="40" as="geometry" />
        </mxCell>
        <mxCell id="Y2pjcOXVoZPDimEb5wzu-21" value="" style="edgeStyle=orthogonalEdgeStyle;rounded=0;orthogonalLoop=1;jettySize=auto;html=1;dashed=1;dashPattern=12 12;" edge="1" parent="1" source="Y2pjcOXVoZPDimEb5wzu-22" target="Y2pjcOXVoZPDimEb5wzu-24">
          <mxGeometry relative="1" as="geometry" />
        </mxCell>
        <mxCell id="Y2pjcOXVoZPDimEb5wzu-22" value="分析用户是否困惑" style="rounded=0;whiteSpace=wrap;html=1;" vertex="1" parent="1">
          <mxGeometry x="320" y="1620" width="220" height="40" as="geometry" />
        </mxCell>
        <mxCell id="Y2pjcOXVoZPDimEb5wzu-23" value="&lt;font style=&quot;font-size: 14px;&quot;&gt;过滤器1（教师模式）&lt;/font&gt;" style="text;html=1;strokeColor=none;fillColor=none;align=center;verticalAlign=middle;whiteSpace=wrap;rounded=0;fontStyle=1" vertex="1" parent="1">
          <mxGeometry x="165" y="1625" width="145" height="30" as="geometry" />
        </mxCell>
        <mxCell id="Y2pjcOXVoZPDimEb5wzu-24" value="分析用户是否愉悦" style="rounded=0;whiteSpace=wrap;html=1;" vertex="1" parent="1">
          <mxGeometry x="320" y="1710" width="220" height="40" as="geometry" />
        </mxCell>
        <mxCell id="Y2pjcOXVoZPDimEb5wzu-25" value="&lt;font style=&quot;font-size: 14px;&quot;&gt;过滤器2（伴侣模式）&lt;/font&gt;" style="text;html=1;strokeColor=none;fillColor=none;align=center;verticalAlign=middle;whiteSpace=wrap;rounded=0;fontStyle=1" vertex="1" parent="1">
          <mxGeometry x="165" y="1715" width="145" height="30" as="geometry" />
        </mxCell>
        <mxCell id="Y2pjcOXVoZPDimEb5wzu-29" value="" style="edgeStyle=orthogonalEdgeStyle;rounded=0;orthogonalLoop=1;jettySize=auto;html=1;" edge="1" parent="1" source="Y2pjcOXVoZPDimEb5wzu-26" target="Y2pjcOXVoZPDimEb5wzu-28">
          <mxGeometry relative="1" as="geometry" />
        </mxCell>
        <mxCell id="Y2pjcOXVoZPDimEb5wzu-26" value="分析用户是否困惑" style="rhombus;whiteSpace=wrap;html=1;" vertex="1" parent="1">
          <mxGeometry x="297.5" y="280" width="145" height="80" as="geometry" />
        </mxCell>
        <mxCell id="Y2pjcOXVoZPDimEb5wzu-28" value="分析用户是否愉悦" style="rhombus;whiteSpace=wrap;html=1;" vertex="1" parent="1">
          <mxGeometry x="300" y="400" width="140" height="80" as="geometry" />
        </mxCell>
      </root>
    </mxGraphModel>
  </diagram>
</mxfile>
